<svg width="19" height="21" viewBox="0 0 19 21" fill="none" xmlns="http://www.w3.org/2000/svg">
<path d="M16.393 3.4691C16.2716 4.5267 14.772 5.1047 13.7301 4.88612C12.5993 4.64888 11.1333 4.81739 9.49479 6.1665C5.75 9.24985 2.44792 7.74985 2.44792 4.49985C2.44792 4.27813 2.44792 4.07542 2.44792 3.89015C2.44792 2.78558 3.34335 2.08317 4.44792 2.08317H15.157C15.9003 2.08317 16.4778 2.73067 16.393 3.4691ZM2.36139 0.0415039C1.1687 0.0415039 0.241116 1.07873 0.373806 2.26401L2.20833 18.6513C2.34375 19.6721 3.21875 20.4582 4.29167 20.4582H14.7083C15.75 20.4582 16.6562 19.6721 16.7917 18.6513L18.6262 2.26401C18.7589 1.07873 17.8313 0.0415039 16.6386 0.0415039H2.36139Z" fill="black"/>
</svg>
