<svg width="32" height="32" viewBox="0 0 32 32" fill="none" xmlns="http://www.w3.org/2000/svg">
<path d="M21.3333 23.9998C21.3333 24.7362 20.7364 25.3332 20 25.3332H5.33334C4.59696 25.3332 4 24.7362 4 23.9998C4 23.2635 4.59695 22.6665 5.33333 22.6665H20C20.7364 22.6665 21.3333 23.2635 21.3333 23.9998ZM28 13.3332C28 12.5968 27.403 11.9998 26.6667 11.9998H5.33333C4.59695 11.9998 4 12.5968 4 13.3332C4 14.0696 4.59695 14.6665 5.33333 14.6665H26.6667C27.403 14.6665 28 14.0696 28 13.3332ZM5.33333 6.6665C4.59695 6.6665 4 7.26346 4 7.99984C4 8.73622 4.59695 9.33317 5.33333 9.33317H17.3333C18.0697 9.33317 18.6667 8.73622 18.6667 7.99984C18.6667 7.26346 18.0697 6.6665 17.3333 6.6665H5.33333ZM24 6.6665C23.2636 6.6665 22.6667 7.26346 22.6667 7.99984C22.6667 8.73622 23.2636 9.33317 24 9.33317H26.6667C27.403 9.33317 28 8.73622 28 7.99984C28 7.26346 27.403 6.6665 26.6667 6.6665H24ZM16 17.3332C15.2636 17.3332 14.6667 17.9301 14.6667 18.6665C14.6667 19.4029 15.2636 19.9998 16 19.9998H26.6667C27.403 19.9998 28 19.4029 28 18.6665C28 17.9301 27.403 17.3332 26.6667 17.3332H16ZM5.33333 17.3332C4.59695 17.3332 4 17.9301 4 18.6665C4 19.4029 4.59695 19.9998 5.33333 19.9998H9.33333C10.0697 19.9998 10.6667 19.4029 10.6667 18.6665C10.6667 17.9301 10.0697 17.3332 9.33333 17.3332H5.33333Z" fill="black"/>
</svg>
