<svg width="93" height="93" viewBox="0 0 93 93" fill="none" xmlns="http://www.w3.org/2000/svg">
<path d="M46.5 7.75C25.1333 7.75 7.75 25.1333 7.75 46.5C7.75 67.8668 25.1333 85.25 46.5 85.25C67.8668 85.25 85.25 67.8668 85.25 46.5C85.25 25.1333 67.8668 7.75 46.5 7.75ZM46.5 77.5C29.4074 77.5 15.5 63.5926 15.5 46.5C15.5 29.4074 29.4074 15.5 46.5 15.5C63.5926 15.5 77.5 29.4074 77.5 46.5C77.5 63.5926 63.5926 77.5 46.5 77.5Z" fill="black"/>
<path d="M50.375 31C50.375 28.8599 48.6401 27.125 46.5 27.125C44.3599 27.125 42.625 28.8599 42.625 31V45.375C42.625 48.1364 44.8636 50.375 47.625 50.375H62C64.1401 50.375 65.875 48.6401 65.875 46.5C65.875 44.3599 64.1401 42.625 62 42.625H55.375C52.6136 42.625 50.375 40.3864 50.375 37.625V31Z" fill="black"/>
</svg>
