<svg width="42" height="52" viewBox="0 0 42 52" fill="none" xmlns="http://www.w3.org/2000/svg">
<path d="M19.439 33.9743C19.1202 34.3451 18.9438 34.8418 18.9478 35.3574C18.9518 35.873 19.1359 36.3662 19.4603 36.7307C19.7848 37.0953 20.2237 37.3021 20.6825 37.3066C21.1414 37.3111 21.5834 37.1129 21.9135 36.7547L31.248 26.2269C31.3295 26.1356 31.3941 26.0271 31.4382 25.9077C31.4824 25.7882 31.5051 25.6602 31.5051 25.5309C31.5051 25.4015 31.4824 25.2735 31.4382 25.154C31.3941 25.0346 31.3295 24.9261 31.248 24.8348L21.9135 14.311C21.5834 13.9528 21.1414 13.7546 20.6825 13.7591C20.2237 13.7635 19.7848 13.9703 19.4603 14.3349C19.1359 14.6995 18.9518 15.1927 18.9478 15.7082C18.9438 16.2238 19.1202 16.7205 19.439 17.0914L25.2 23.596H1.75C1.28587 23.596 0.840752 23.8032 0.512563 24.1719C0.184374 24.5407 0 25.0408 0 25.5623C0 26.0838 0.184374 26.584 0.512563 26.9527C0.840752 27.3215 1.28587 27.5286 1.75 27.5286H25.2L19.439 33.9743ZM38.5 0H15.75C15.2859 0 14.8408 0.207166 14.5126 0.575925C14.1844 0.944684 14 1.44483 14 1.96633C14 2.48784 14.1844 2.98798 14.5126 3.35674C14.8408 3.7255 15.2859 3.93266 15.75 3.93266H36.75C37.2141 3.93266 37.6592 4.13983 37.9874 4.50859C38.3156 4.87735 38.5 5.37749 38.5 5.899V45.2256C38.5 45.7471 38.3156 46.2473 37.9874 46.616C37.6592 46.9848 37.2141 47.192 36.75 47.192H14.875C14.4109 47.192 13.9658 47.3991 13.6376 47.7679C13.3094 48.1367 13.125 48.6368 13.125 49.1583C13.125 49.6798 13.3094 50.18 13.6376 50.5487C13.9658 50.9175 14.4109 51.1246 14.875 51.1246H38.5C39.4283 51.1246 40.3185 50.7103 40.9749 49.9728C41.6312 49.2353 42 48.235 42 47.192V3.93266C42 2.88966 41.6312 1.88937 40.9749 1.15185C40.3185 0.414333 39.4283 0 38.5 0Z" fill="black"/>
</svg>
