<svg width="40" height="40" viewBox="0 0 56 56" fill="none" xmlns="http://www.w3.org/2000/svg">
<path d="M30.3333 4.73669C30.3333 4.73669 28.5 8.45027 30.3333 9.45003C31.2698 9.96071 36.4351 10.5667 41 15.5C45.5649 20.4333 47.2712 25.1611 46.5733 30.2634C45.1466 40.6934 35.5 46.6667 30.3333 46.5034C25.1666 46.34 30.3333 51.17 30.3333 51.17C43.1667 49.8867 52.5 38.5 51.2167 25.6667C50.1667 14.5834 41.37 5.83336 30.3333 4.73669ZM25.6667 4.80669C21.1166 5.25003 13.1833 7.88006 13.23 9.94003C13.2767 12 15.7733 14.2867 16.5667 13.3934C17.36 12.5 22.33 9.94003 25.6667 9.47336V4.80669ZM9.93998 13.23C8.5 13.3934 3 25 4.78332 25.6667C6.56664 26.3334 9.44998 25.6667 9.44998 25.6667C9.89332 22.3534 11.2 19.2034 13.2767 16.5667C13.2767 16.5667 11.38 13.0667 9.93998 13.23ZM36.1667 19.8334C35 20.5 26.06 30.9401 24.78 31.22C23.5 31.5 21.1666 27.5467 19.8333 26.2734C18.5 25 16.5667 27 17.36 28.7467C18.1533 30.4934 24.78 36.6667 25.6667 36C26.5533 35.3333 37.5 23 38.64 22.3067C39.78 21.6134 37.3333 19.1667 36.1667 19.8334ZM4.80665 30.3334C3.6133 30.4034 7.06998 39.2234 9.96332 42.77C9.96332 42.77 14.5066 40.4334 13.23 39.5C11.9533 38.5666 9.47332 30.3334 9.47332 30.3334C9.47332 30.3334 6 30.2634 4.80665 30.3334ZM16.5667 42.8634C15.5 42.77 13.23 45 13.23 46.06C13.23 47.12 23.5 51.17 25.6667 51.3334C27.8333 51.4967 25.6667 46.6667 25.6667 46.6667C25.6667 46.6667 17.6333 42.9567 16.5667 42.8634Z" fill="black"/>
</svg>
